# xmcd
#
# Track frame offsets:
#	183
#	10033
#	21533
#	33245
#	45670
#	56383
#	63695
#	75970
#	88645
#	97370
#	107933
#	119233
#	139383
#	148970
#	165358
#	177183
#	186708
#	199158
#	215120
#	226383
#	239520
#	249595
#	260495
#	272095
#
# Disc length: 3817 seconds
#
# Revision: 3
# Processed by: cddbd v1.5.2PL0 Copyright (c) Steve Scherf et al.
# Submitted via: audiograbber 1.83.01
#
DISCID=730ee718
DTITLE=Jerry Lee Lewis - Killer: The Mercury Years Vol. II, 1969-1972
DYEAR=1989
DGENRE=Rock
TTITLE0=Jambalaya
TTITLE1=Home Away From Home
TTITLE2=I Can't Stop Loving You
TTITLE3=Oh Lonesome Me
TTITLE4=You've Still Got A Place In My Heart
TTITLE5=Why Don't You Love Me (Like You Used To)
TTITLE6=Reuben James
TTITLE7=Since I Met You Baby
TTITLE8=You Wnet Out Of Your Way (To Walk On Me)
TTITLE9=Handwriting On The Wall
TTITLE10=You Don't Miss Your Water
TTITLE11=On The Jericho Road/I'll Fly Away
TTITLE12=Flip, Flop And Fly
TTITLE13=Blue Suede Shoes
TTITLE14=Stagger Lee
TTITLE15=Today I Started Loving You Again
TTITLE16=Shoeshine Man
TTITLE17=I'm In The Gloryland Way
TTITLE18=When He Walks On You (Like You Walked On Me)
TTITLE19=Workin' Man Blues
TTITLE20=I Get The Blues When It Rains
TTITLE21=Please Don't Talk About me When I'm Gone
TTITLE22=Another Hand Shakin' Goodbye
TTITLE23=Me And Bobby McGee
EXTD=Mercury/PolyGram Records. CD 836 938-2. Made in West Germany.
EXTT0=
EXTT1=
EXTT2=
EXTT3=
EXTT4=
EXTT5=
EXTT6=
EXTT7=
EXTT8=
EXTT9=
EXTT10=
EXTT11=
EXTT12=
EXTT13=
EXTT14=
EXTT15=
EXTT16=
EXTT17=
EXTT18=
EXTT19=
EXTT20=
EXTT21=
EXTT22=
EXTT23=
PLAYORDER=
